<svg xmlns="http://www.w3.org/2000/svg" width="1440" height="1900" viewBox="0 0 1440 1900" font-family="Helvetica,Arial,sans-serif">
<rect width="1440" height="1900" fill="#ffffff"/>
<defs><marker id="a" markerWidth="9" markerHeight="9" refX="7" refY="3" orient="auto"><path d="M0,0 L7,3 L0,6 Z" fill="#475569"/></marker></defs>
<text x="720.0" y="34" font-size="20" font-weight="bold" text-anchor="middle" fill="#0f172a">DHC-4 Caribou  -  full electronics wiring</text>
<text x="40" y="70" font-size="16" font-weight="bold" fill="#0f172a">1.  Power and ground</text>
<line x1="40" y1="79" x2="1400" y2="79" stroke="#cbd5e1" stroke-width="1.6"/>
<rect x="600" y="86" width="240" height="52" rx="9" fill="#fee2e2" stroke="#dc2626" stroke-width="1.6"/>
<text x="720.0" y="109" font-size="14" font-weight="bold" text-anchor="middle" fill="#111827">6S LiPo 3200 mAh</text>
<text x="615" y="130" font-size="12" fill="#374151">22.2 V nominal.</text>
<rect x="230" y="188" width="260" height="70" rx="9" fill="#ffedd5" stroke="#f97316" stroke-width="1.6"/>
<text x="360.0" y="211" font-size="14" font-weight="bold" text-anchor="middle" fill="#111827">XT60  +  ESC-B  (left wing)</text>
<text x="245" y="232" font-size="12" fill="#374151">80 A ESC.  5 A 5 V BEC powers:</text>
<text x="245" y="249.5" font-size="12" fill="#374151">left wing + nose retract + steering</text>
<rect x="950" y="188" width="260" height="70" rx="9" fill="#ffedd5" stroke="#f97316" stroke-width="1.6"/>
<text x="1080.0" y="211" font-size="14" font-weight="bold" text-anchor="middle" fill="#111827">XT60  +  ESC-A  (right wing)</text>
<text x="965" y="232" font-size="12" fill="#374151">80 A ESC.  5 A 5 V BEC powers:</text>
<text x="965" y="249.5" font-size="12" fill="#374151">right wing + fuselage (the rest)</text>
<rect x="60" y="198" width="140" height="48" rx="9" fill="#f1f5f9" stroke="#64748b" stroke-width="1.6"/>
<text x="130.0" y="221" font-size="14" font-weight="bold" text-anchor="middle" fill="#111827">Motor LEFT</text>
<text x="75" y="242" font-size="12" fill="#374151">XRotor 3115</text>
<rect x="1240" y="198" width="140" height="48" rx="9" fill="#f1f5f9" stroke="#64748b" stroke-width="1.6"/>
<text x="1310.0" y="221" font-size="14" font-weight="bold" text-anchor="middle" fill="#111827">Motor RIGHT</text>
<text x="1255" y="242" font-size="12" fill="#374151">XRotor 3115</text>
<polyline points="660,138 660,162 360,162 360,188" fill="none" stroke="#dc2626" stroke-width="2.6" marker-end="url(#a)"/>
<polyline points="660,162 1080,162 1080,188" fill="none" stroke="#dc2626" stroke-width="2.6" marker-end="url(#a)"/>
<polyline points="230,222 200,222" fill="none" stroke="#1f2937" stroke-width="4" marker-end="url(#a)"/>
<rect x="186.6" y="213.0" width="56.800000000000004" height="16" rx="3" fill="#ffffff" stroke="#1f2937"/>
<text x="215.0" y="225.0" font-size="10" text-anchor="middle" fill="#1f2937">3-phase</text>
<polyline points="1210,222 1240,222" fill="none" stroke="#1f2937" stroke-width="4" marker-end="url(#a)"/>
<rect x="1196.6" y="213.0" width="56.800000000000004" height="16" rx="3" fill="#ffffff" stroke="#1f2937"/>
<text x="1225.0" y="225.0" font-size="10" text-anchor="middle" fill="#1f2937">3-phase</text>
<rect x="430" y="300" width="580" height="34" rx="6" fill="#334155"/>
<text x="720" y="322" font-size="13" font-weight="bold" text-anchor="middle" fill="#fff">COMMON GROUND   (every ground is this one node)</text>
<polyline points="360,258 360,317 430,317" fill="none" stroke="#334155" stroke-width="2" stroke-dasharray="6,4" marker-end="url(#a)"/>
<rect x="315.6" y="274" width="88.80000000000001" height="16" rx="3" fill="#ffffff" stroke="#334155"/>
<text x="360" y="286" font-size="10" text-anchor="middle" fill="#334155">thin GND tap</text>
<polyline points="1080,258 1080,317 1010,317" fill="none" stroke="#334155" stroke-width="2" stroke-dasharray="6,4" marker-end="url(#a)"/>
<rect x="1035.6" y="274" width="88.80000000000001" height="16" rx="3" fill="#ffffff" stroke="#334155"/>
<text x="1080" y="286" font-size="10" text-anchor="middle" fill="#334155">thin GND tap</text>
<text x="720" y="356" font-size="11" text-anchor="middle" fill="#475569">A thin ground wire taps each XT60 and joins the common-ground bus. The MPX connectors carry no ground pin.</text>
<text x="40" y="400" font-size="16" font-weight="bold" fill="#0f172a">2.  Layout   (each wing self-powered by its own ESC; the fuselage runs on two 5 V buses)</text>
<line x1="40" y1="409" x2="1400" y2="409" stroke="#cbd5e1" stroke-width="1.6"/>
<rect x="40" y="426" width="360" height="348" rx="9" fill="#f0fdf4" stroke="#22c55e" stroke-width="1.6"/>
<text x="220.0" y="449" font-size="14" font-weight="bold" text-anchor="middle" fill="#111827">LEFT WING   (local 5 V from ESC-B)</text>
<text x="55" y="470" font-size="12" font-weight="bold" fill="#374151">Wing actuators, 5 V + GND local:</text>
<text x="55" y="487.5" font-size="12" fill="#374151">aileron L servo</text>
<text x="55" y="505.0" font-size="12" fill="#374151">flap 1 L servo,  flap 2 L servo</text>
<text x="55" y="522.5" font-size="12" fill="#374151">retract L  (main gear)</text>
<text x="55" y="540.0" font-size="12" fill="#374151">LED1  white, steady  (taps 5 V/GND)</text>
<text x="55" y="557.5" font-size="12" fill="#374151">LED2  red, blink  (GPIO signal)</text>
<text x="55" y="575.0" font-size="12" fill="#374151"></text>
<text x="55" y="592.5" font-size="12" font-weight="bold" fill="#374151">To fuselage via MPX-L (8 pin):</text>
<text x="55" y="610.0" font-size="12" fill="#374151">6 signal wires + ESC-B 5 V (nose bus).</text>
<text x="55" y="627.5" font-size="12" fill="#374151">No ground pin.  1 pin spare.</text>
<rect x="540" y="426" width="360" height="348" rx="9" fill="#eff6ff" stroke="#3b82f6" stroke-width="1.6"/>
<text x="720.0" y="449" font-size="14" font-weight="bold" text-anchor="middle" fill="#111827">FUSELAGE</text>
<text x="555" y="470" font-size="12" font-weight="bold" fill="#374151">Body bus  -  ESC-A 5 V via MPX-R:</text>
<text x="555" y="487.5" font-size="12" fill="#374151">RP2350 WeAct, ESP32-C3 companion,</text>
<text x="555" y="505.0" font-size="12" fill="#374151">elevator x2, rudder, bay door x2</text>
<text x="555" y="522.5" font-size="12" font-weight="bold" fill="#374151">Nose bus  -  ESC-B 5 V via MPX-L:</text>
<text x="555" y="540.0" font-size="12" fill="#374151">nose gear retract, nose steering</text>
<text x="555" y="557.5" font-size="12" fill="#374151"></text>
<text x="555" y="575.0" font-size="12" font-weight="bold" fill="#374151">Sensors: MPU6500 + BMP388 (I2C),</text>
<text x="555" y="592.5" font-size="12" fill="#374151">microSD (SPI), SBUS receiver</text>
<text x="555" y="610.0" font-size="12" font-weight="bold" fill="#374151">Body actuators on 3-pin headers</text>
<text x="555" y="627.5" font-size="12" fill="#374151">(signal / 5 V / GND).</text>
<rect x="1040" y="426" width="360" height="348" rx="9" fill="#f0fdf4" stroke="#22c55e" stroke-width="1.6"/>
<text x="1220.0" y="449" font-size="14" font-weight="bold" text-anchor="middle" fill="#111827">RIGHT WING   (local 5 V from ESC-A)</text>
<text x="1055" y="470" font-size="12" font-weight="bold" fill="#374151">Wing actuators, 5 V + GND local:</text>
<text x="1055" y="487.5" font-size="12" fill="#374151">aileron R servo</text>
<text x="1055" y="505.0" font-size="12" fill="#374151">flap 1 R servo,  flap 2 R servo</text>
<text x="1055" y="522.5" font-size="12" fill="#374151">retract R  (main gear)</text>
<text x="1055" y="540.0" font-size="12" fill="#374151">LED1  white, steady  (taps 5 V/GND)</text>
<text x="1055" y="557.5" font-size="12" fill="#374151">LED2  green, blink  (GPIO signal)</text>
<text x="1055" y="575.0" font-size="12" fill="#374151"></text>
<text x="1055" y="592.5" font-size="12" font-weight="bold" fill="#374151">To fuselage via MPX-R (8 pin):</text>
<text x="1055" y="610.0" font-size="12" fill="#374151">6 signal wires + ESC-A 5 V (body bus).</text>
<text x="1055" y="627.5" font-size="12" fill="#374151">No ground pin.  1 pin spare.</text>
<rect x="430" y="548" width="50" height="92" rx="5" fill="#0f766e"/>
<text x="455" y="572" font-size="11" font-weight="bold" text-anchor="middle" fill="#fff">MPX-L</text>
<text x="455" y="588" font-size="9" text-anchor="middle" fill="#99f6e4">8-pin</text>
<circle cx="455" cy="600" r="1.7" fill="#99f6e4"/>
<circle cx="455" cy="605" r="1.7" fill="#99f6e4"/>
<circle cx="455" cy="610" r="1.7" fill="#99f6e4"/>
<circle cx="455" cy="615" r="1.7" fill="#99f6e4"/>
<circle cx="455" cy="620" r="1.7" fill="#99f6e4"/>
<circle cx="455" cy="625" r="1.7" fill="#99f6e4"/>
<circle cx="455" cy="630" r="1.7" fill="#99f6e4"/>
<rect x="915" y="548" width="50" height="92" rx="5" fill="#0f766e"/>
<text x="940" y="572" font-size="11" font-weight="bold" text-anchor="middle" fill="#fff">MPX-R</text>
<text x="940" y="588" font-size="9" text-anchor="middle" fill="#99f6e4">8-pin</text>
<circle cx="940" cy="600" r="1.7" fill="#99f6e4"/>
<circle cx="940" cy="605" r="1.7" fill="#99f6e4"/>
<circle cx="940" cy="610" r="1.7" fill="#99f6e4"/>
<circle cx="940" cy="615" r="1.7" fill="#99f6e4"/>
<circle cx="940" cy="620" r="1.7" fill="#99f6e4"/>
<circle cx="940" cy="625" r="1.7" fill="#99f6e4"/>
<circle cx="940" cy="630" r="1.7" fill="#99f6e4"/>
<polyline points="400,566 430,566" fill="none" stroke="#4f46e5" stroke-width="3.4" marker-end="url(#a)"/>
<rect x="393.0" y="557.0" width="44.0" height="16" rx="3" fill="#ffffff" stroke="#4f46e5"/>
<text x="415.0" y="569.0" font-size="10" text-anchor="middle" fill="#4f46e5">6 sig</text>
<polyline points="480,566 540,566" fill="none" stroke="#4f46e5" stroke-width="3.4" marker-end="url(#a)"/>
<polyline points="480,616 540,616" fill="none" stroke="#dc2626" stroke-width="3.4" marker-end="url(#a)"/>
<rect x="478.4" y="607.0" width="63.2" height="16" rx="3" fill="#ffffff" stroke="#dc2626"/>
<text x="510.0" y="619.0" font-size="10" text-anchor="middle" fill="#dc2626">ESC-B 5V</text>
<polyline points="900,566 915,566" fill="none" stroke="#4f46e5" stroke-width="3.4" marker-end="url(#a)"/>
<polyline points="965,566 1040,566" fill="none" stroke="#4f46e5" stroke-width="3.4" marker-end="url(#a)"/>
<rect x="980.5" y="557.0" width="44.0" height="16" rx="3" fill="#ffffff" stroke="#4f46e5"/>
<text x="1002.5" y="569.0" font-size="10" text-anchor="middle" fill="#4f46e5">6 sig</text>
<polyline points="900,616 915,616" fill="none" stroke="#dc2626" stroke-width="3.4" marker-end="url(#a)"/>
<rect x="875.9" y="607.0" width="63.2" height="16" rx="3" fill="#ffffff" stroke="#dc2626"/>
<text x="907.5" y="619.0" font-size="10" text-anchor="middle" fill="#dc2626">ESC-A 5V</text>
<text x="720" y="762" font-size="11" text-anchor="middle" fill="#92400e">ESC-A still carries the right wing + most of the fuselage. ESC-B takes its wing + the nose. Watch ESC-A under multi-servo / retract current.</text>
<text x="40" y="820" font-size="16" font-weight="bold" fill="#0f172a">3.  Connector pinouts and FC channel map</text>
<line x1="40" y1="829" x2="1400" y2="829" stroke="#cbd5e1" stroke-width="1.6"/>
<rect x="60" y="852" width="600" height="238" rx="8" fill="#fff" stroke="#0f766e" stroke-width="1.5"/>
<rect x="60" y="852" width="600" height="30" fill="#0f766e"/>
<rect x="60" y="874" width="600" height="8" fill="#0f766e"/>
<text x="360.0" y="872" font-size="12.5" font-weight="bold" text-anchor="middle" fill="#fff">MPX-R   right wing  (7/8, no ground pin)</text>
<rect x="68" y="886" width="30" height="17" rx="4" fill="#0f766e"/>
<text x="83" y="898" font-size="10.5" font-weight="bold" text-anchor="middle" fill="#fff">1</text>
<text x="108" y="898" font-size="11.5" fill="#1f2937">aileron R  signal</text>
<text x="648" y="898" font-size="11" text-anchor="end" fill="#1d4ed8">FC GP7</text>
<rect x="61" y="907" width="598" height="25" fill="#f0fdfa"/>
<rect x="68" y="911" width="30" height="17" rx="4" fill="#0f766e"/>
<text x="83" y="923" font-size="10.5" font-weight="bold" text-anchor="middle" fill="#fff">2</text>
<text x="108" y="923" font-size="11.5" fill="#1f2937">flap 1  signal</text>
<text x="648" y="923" font-size="11" text-anchor="end" fill="#4f46e5">FC GP12</text>
<rect x="68" y="936" width="30" height="17" rx="4" fill="#0f766e"/>
<text x="83" y="948" font-size="10.5" font-weight="bold" text-anchor="middle" fill="#fff">3</text>
<text x="108" y="948" font-size="11.5" fill="#1f2937">flap 2  signal</text>
<text x="648" y="948" font-size="11" text-anchor="end" fill="#4f46e5">FC GP13</text>
<rect x="61" y="957" width="598" height="25" fill="#f0fdfa"/>
<rect x="68" y="961" width="30" height="17" rx="4" fill="#0f766e"/>
<text x="83" y="973" font-size="10.5" font-weight="bold" text-anchor="middle" fill="#fff">4</text>
<text x="108" y="973" font-size="11.5" fill="#1f2937">retract R  signal</text>
<text x="648" y="973" font-size="11" text-anchor="end" fill="#4f46e5">FC GP22</text>
<rect x="68" y="986" width="30" height="17" rx="4" fill="#0f766e"/>
<text x="83" y="998" font-size="10.5" font-weight="bold" text-anchor="middle" fill="#fff">5</text>
<text x="108" y="998" font-size="11.5" fill="#1f2937">ESC-A  signal</text>
<text x="648" y="998" font-size="11" text-anchor="end" fill="#1d4ed8">FC GP10</text>
<rect x="61" y="1007" width="598" height="25" fill="#f0fdfa"/>
<rect x="68" y="1011" width="30" height="17" rx="4" fill="#0f766e"/>
<text x="83" y="1023" font-size="10.5" font-weight="bold" text-anchor="middle" fill="#fff">6</text>
<text x="108" y="1023" font-size="11.5" fill="#1f2937">LED2  signal (blink)</text>
<text x="648" y="1023" font-size="11" text-anchor="end" fill="#4f46e5">FC GP2</text>
<rect x="68" y="1036" width="30" height="17" rx="4" fill="#0f766e"/>
<text x="83" y="1048" font-size="10.5" font-weight="bold" text-anchor="middle" fill="#fff">7</text>
<text x="108" y="1048" font-size="11.5" fill="#1f2937">+5V   ESC-A BEC</text>
<text x="648" y="1048" font-size="11" text-anchor="end" fill="#b91c1c">to fuselage body bus</text>
<rect x="61" y="1057" width="598" height="25" fill="#f0fdfa"/>
<rect x="68" y="1061" width="30" height="17" rx="4" fill="#0f766e"/>
<text x="83" y="1073" font-size="10.5" font-weight="bold" text-anchor="middle" fill="#fff">8</text>
<text x="108" y="1073" font-size="11.5" fill="#1f2937">spare</text>
<text x="648" y="1073" font-size="11" text-anchor="end" fill="#94a3b8">open</text>
<rect x="780" y="852" width="600" height="238" rx="8" fill="#fff" stroke="#0f766e" stroke-width="1.5"/>
<rect x="780" y="852" width="600" height="30" fill="#0f766e"/>
<rect x="780" y="874" width="600" height="8" fill="#0f766e"/>
<text x="1080.0" y="872" font-size="12.5" font-weight="bold" text-anchor="middle" fill="#fff">MPX-L   left wing  (7/8, no ground pin)</text>
<rect x="788" y="886" width="30" height="17" rx="4" fill="#0f766e"/>
<text x="803" y="898" font-size="10.5" font-weight="bold" text-anchor="middle" fill="#fff">1</text>
<text x="828" y="898" font-size="11.5" fill="#1f2937">aileron L  signal</text>
<text x="1368" y="898" font-size="11" text-anchor="end" fill="#1d4ed8">FC GP6</text>
<rect x="781" y="907" width="598" height="25" fill="#f0fdfa"/>
<rect x="788" y="911" width="30" height="17" rx="4" fill="#0f766e"/>
<text x="803" y="923" font-size="10.5" font-weight="bold" text-anchor="middle" fill="#fff">2</text>
<text x="828" y="923" font-size="11.5" fill="#1f2937">flap 1  signal</text>
<text x="1368" y="923" font-size="11" text-anchor="end" fill="#4f46e5">FC GP12</text>
<rect x="788" y="936" width="30" height="17" rx="4" fill="#0f766e"/>
<text x="803" y="948" font-size="10.5" font-weight="bold" text-anchor="middle" fill="#fff">3</text>
<text x="828" y="948" font-size="11.5" fill="#1f2937">flap 2  signal</text>
<text x="1368" y="948" font-size="11" text-anchor="end" fill="#4f46e5">FC GP13</text>
<rect x="781" y="957" width="598" height="25" fill="#f0fdfa"/>
<rect x="788" y="961" width="30" height="17" rx="4" fill="#0f766e"/>
<text x="803" y="973" font-size="10.5" font-weight="bold" text-anchor="middle" fill="#fff">4</text>
<text x="828" y="973" font-size="11.5" fill="#1f2937">retract L  signal</text>
<text x="1368" y="973" font-size="11" text-anchor="end" fill="#4f46e5">FC GP22</text>
<rect x="788" y="986" width="30" height="17" rx="4" fill="#0f766e"/>
<text x="803" y="998" font-size="10.5" font-weight="bold" text-anchor="middle" fill="#fff">5</text>
<text x="828" y="998" font-size="11.5" fill="#1f2937">ESC-B  signal</text>
<text x="1368" y="998" font-size="11" text-anchor="end" fill="#1d4ed8">FC GP11</text>
<rect x="781" y="1007" width="598" height="25" fill="#f0fdfa"/>
<rect x="788" y="1011" width="30" height="17" rx="4" fill="#0f766e"/>
<text x="803" y="1023" font-size="10.5" font-weight="bold" text-anchor="middle" fill="#fff">6</text>
<text x="828" y="1023" font-size="11.5" fill="#1f2937">LED2  signal (blink)</text>
<text x="1368" y="1023" font-size="11" text-anchor="end" fill="#4f46e5">FC GP2</text>
<rect x="788" y="1036" width="30" height="17" rx="4" fill="#0f766e"/>
<text x="803" y="1048" font-size="10.5" font-weight="bold" text-anchor="middle" fill="#fff">7</text>
<text x="828" y="1048" font-size="11.5" fill="#1f2937">+5V   ESC-B BEC</text>
<text x="1368" y="1048" font-size="11" text-anchor="end" fill="#b91c1c">to fuselage nose bus</text>
<rect x="781" y="1057" width="598" height="25" fill="#f0fdfa"/>
<rect x="788" y="1061" width="30" height="17" rx="4" fill="#0f766e"/>
<text x="803" y="1073" font-size="10.5" font-weight="bold" text-anchor="middle" fill="#fff">8</text>
<text x="828" y="1073" font-size="11.5" fill="#1f2937">spare</text>
<text x="1368" y="1073" font-size="11" text-anchor="end" fill="#94a3b8">open</text>
<rect x="60" y="1110" width="600" height="213" rx="8" fill="#fff" stroke="#475569" stroke-width="1.5"/>
<rect x="60" y="1110" width="600" height="30" fill="#475569"/>
<rect x="60" y="1132" width="600" height="8" fill="#475569"/>
<text x="360.0" y="1130" font-size="12.5" font-weight="bold" text-anchor="middle" fill="#fff">Fuselage 3-pin headers   signal / +5V / GND</text>
<rect x="68" y="1144" width="30" height="17" rx="4" fill="#475569"/>
<text x="83" y="1156" font-size="10.5" font-weight="bold" text-anchor="middle" fill="#fff">H1</text>
<text x="108" y="1156" font-size="11.5" fill="#1f2937">elevator servo 1   (body bus)</text>
<text x="648" y="1156" font-size="11" text-anchor="end" fill="#1d4ed8">FC GP8</text>
<rect x="61" y="1165" width="598" height="25" fill="#f1f5f9"/>
<rect x="68" y="1169" width="30" height="17" rx="4" fill="#475569"/>
<text x="83" y="1181" font-size="10.5" font-weight="bold" text-anchor="middle" fill="#fff">H2</text>
<text x="108" y="1181" font-size="11.5" fill="#1f2937">elevator servo 2   (body bus)</text>
<text x="648" y="1181" font-size="11" text-anchor="end" fill="#1d4ed8">FC GP8</text>
<rect x="68" y="1194" width="30" height="17" rx="4" fill="#475569"/>
<text x="83" y="1206" font-size="10.5" font-weight="bold" text-anchor="middle" fill="#fff">H3</text>
<text x="108" y="1206" font-size="11.5" fill="#1f2937">rudder servo   (body bus)</text>
<text x="648" y="1206" font-size="11" text-anchor="end" fill="#1d4ed8">FC GP9</text>
<rect x="61" y="1215" width="598" height="25" fill="#f1f5f9"/>
<rect x="68" y="1219" width="30" height="17" rx="4" fill="#475569"/>
<text x="83" y="1231" font-size="10.5" font-weight="bold" text-anchor="middle" fill="#fff">H4</text>
<text x="108" y="1231" font-size="11.5" fill="#1f2937">cargo bay door 1   (body bus)</text>
<text x="648" y="1231" font-size="11" text-anchor="end" fill="#4f46e5">FC GP15</text>
<rect x="68" y="1244" width="30" height="17" rx="4" fill="#475569"/>
<text x="83" y="1256" font-size="10.5" font-weight="bold" text-anchor="middle" fill="#fff">H5</text>
<text x="108" y="1256" font-size="11.5" fill="#1f2937">cargo bay door 2   (body bus)</text>
<text x="648" y="1256" font-size="11" text-anchor="end" fill="#4f46e5">FC GP28</text>
<rect x="61" y="1265" width="598" height="25" fill="#f1f5f9"/>
<rect x="68" y="1269" width="30" height="17" rx="4" fill="#475569"/>
<text x="83" y="1281" font-size="10.5" font-weight="bold" text-anchor="middle" fill="#fff">H6</text>
<text x="108" y="1281" font-size="11.5" fill="#1f2937">nose gear retract   (nose bus)</text>
<text x="648" y="1281" font-size="11" text-anchor="end" fill="#4f46e5">FC GP22</text>
<rect x="68" y="1294" width="30" height="17" rx="4" fill="#475569"/>
<text x="83" y="1306" font-size="10.5" font-weight="bold" text-anchor="middle" fill="#fff">H7</text>
<text x="108" y="1306" font-size="11.5" fill="#1f2937">nose wheel steering   (nose bus)</text>
<text x="648" y="1306" font-size="11" text-anchor="end" fill="#4f46e5">FC GP3</text>
<rect x="780" y="1110" width="600" height="363" rx="8" fill="#fff" stroke="#1d4ed8" stroke-width="1.5"/>
<rect x="780" y="1110" width="600" height="30" fill="#1d4ed8"/>
<rect x="780" y="1132" width="600" height="8" fill="#1d4ed8"/>
<text x="1080.0" y="1130" font-size="12.5" font-weight="bold" text-anchor="middle" fill="#fff">RP2350 channel map   (LED1 white = no GPIO)</text>
<rect x="788" y="1144" width="30" height="17" rx="4" fill="#1d4ed8"/>
<text x="803" y="1156" font-size="10.5" font-weight="bold" text-anchor="middle" fill="#fff">GP6</text>
<text x="828" y="1156" font-size="11.5" fill="#1f2937">aileron LEFT</text>
<text x="1368" y="1156" font-size="11" text-anchor="end" fill="#1d4ed8">core mixer</text>
<rect x="781" y="1165" width="598" height="25" fill="#eff6ff"/>
<rect x="788" y="1169" width="30" height="17" rx="4" fill="#1d4ed8"/>
<text x="803" y="1181" font-size="10.5" font-weight="bold" text-anchor="middle" fill="#fff">GP7</text>
<text x="828" y="1181" font-size="11.5" fill="#1f2937">aileron RIGHT</text>
<text x="1368" y="1181" font-size="11" text-anchor="end" fill="#1d4ed8">core mixer</text>
<rect x="788" y="1194" width="30" height="17" rx="4" fill="#1d4ed8"/>
<text x="803" y="1206" font-size="10.5" font-weight="bold" text-anchor="middle" fill="#fff">GP8</text>
<text x="828" y="1206" font-size="11.5" fill="#1f2937">elevator  (Y to 2 servos)</text>
<text x="1368" y="1206" font-size="11" text-anchor="end" fill="#1d4ed8">core mixer</text>
<rect x="781" y="1215" width="598" height="25" fill="#eff6ff"/>
<rect x="788" y="1219" width="30" height="17" rx="4" fill="#1d4ed8"/>
<text x="803" y="1231" font-size="10.5" font-weight="bold" text-anchor="middle" fill="#fff">GP9</text>
<text x="828" y="1231" font-size="11.5" fill="#1f2937">rudder</text>
<text x="1368" y="1231" font-size="11" text-anchor="end" fill="#1d4ed8">core mixer</text>
<rect x="788" y="1244" width="30" height="17" rx="4" fill="#1d4ed8"/>
<text x="803" y="1256" font-size="10.5" font-weight="bold" text-anchor="middle" fill="#fff">GP10</text>
<text x="828" y="1256" font-size="11.5" fill="#1f2937">ESC RIGHT</text>
<text x="1368" y="1256" font-size="11" text-anchor="end" fill="#1d4ed8">core mixer</text>
<rect x="781" y="1265" width="598" height="25" fill="#eff6ff"/>
<rect x="788" y="1269" width="30" height="17" rx="4" fill="#1d4ed8"/>
<text x="803" y="1281" font-size="10.5" font-weight="bold" text-anchor="middle" fill="#fff">GP11</text>
<text x="828" y="1281" font-size="11.5" fill="#1f2937">ESC LEFT</text>
<text x="1368" y="1281" font-size="11" text-anchor="end" fill="#1d4ed8">core mixer</text>
<rect x="788" y="1294" width="30" height="17" rx="4" fill="#1d4ed8"/>
<text x="803" y="1306" font-size="10.5" font-weight="bold" text-anchor="middle" fill="#fff">GP12</text>
<text x="828" y="1306" font-size="11.5" fill="#1f2937">flap 1  (Y to both wings)</text>
<text x="1368" y="1306" font-size="11" text-anchor="end" fill="#4f46e5">user-sketch</text>
<rect x="781" y="1315" width="598" height="25" fill="#eff6ff"/>
<rect x="788" y="1319" width="30" height="17" rx="4" fill="#1d4ed8"/>
<text x="803" y="1331" font-size="10.5" font-weight="bold" text-anchor="middle" fill="#fff">GP13</text>
<text x="828" y="1331" font-size="11.5" fill="#1f2937">flap 2  (Y to both wings)</text>
<text x="1368" y="1331" font-size="11" text-anchor="end" fill="#4f46e5">user-sketch</text>
<rect x="788" y="1344" width="30" height="17" rx="4" fill="#1d4ed8"/>
<text x="803" y="1356" font-size="10.5" font-weight="bold" text-anchor="middle" fill="#fff">GP22</text>
<text x="828" y="1356" font-size="11.5" fill="#1f2937">retracts  (Y to 2 wing + nose)</text>
<text x="1368" y="1356" font-size="11" text-anchor="end" fill="#4f46e5">user-sketch</text>
<rect x="781" y="1365" width="598" height="25" fill="#eff6ff"/>
<rect x="788" y="1369" width="30" height="17" rx="4" fill="#1d4ed8"/>
<text x="803" y="1381" font-size="10.5" font-weight="bold" text-anchor="middle" fill="#fff">GP15</text>
<text x="828" y="1381" font-size="11.5" fill="#1f2937">bay door 1</text>
<text x="1368" y="1381" font-size="11" text-anchor="end" fill="#4f46e5">user-sketch</text>
<rect x="788" y="1394" width="30" height="17" rx="4" fill="#1d4ed8"/>
<text x="803" y="1406" font-size="10.5" font-weight="bold" text-anchor="middle" fill="#fff">GP28</text>
<text x="828" y="1406" font-size="11.5" fill="#1f2937">bay door 2</text>
<text x="1368" y="1406" font-size="11" text-anchor="end" fill="#4f46e5">user-sketch</text>
<rect x="781" y="1415" width="598" height="25" fill="#eff6ff"/>
<rect x="788" y="1419" width="30" height="17" rx="4" fill="#1d4ed8"/>
<text x="803" y="1431" font-size="10.5" font-weight="bold" text-anchor="middle" fill="#fff">GP3</text>
<text x="828" y="1431" font-size="11.5" fill="#1f2937">nose wheel steering</text>
<text x="1368" y="1431" font-size="11" text-anchor="end" fill="#4f46e5">user-sketch</text>
<rect x="788" y="1444" width="30" height="17" rx="4" fill="#1d4ed8"/>
<text x="803" y="1456" font-size="10.5" font-weight="bold" text-anchor="middle" fill="#fff">GP2</text>
<text x="828" y="1456" font-size="11.5" fill="#1f2937">LED2 nav blink  (both wings)</text>
<text x="1368" y="1456" font-size="11" text-anchor="end" fill="#4f46e5">user-sketch</text>
<rect x="60" y="1347" width="600" height="163" rx="8" fill="#fff" stroke="#334155" stroke-width="1.5"/>
<rect x="60" y="1347" width="600" height="30" fill="#334155"/>
<rect x="60" y="1369" width="600" height="8" fill="#334155"/>
<text x="360.0" y="1367" font-size="12.5" font-weight="bold" text-anchor="middle" fill="#fff">RP2350 fixed connections</text>
<rect x="68" y="1381" width="30" height="17" rx="4" fill="#334155"/>
<text x="83" y="1393" font-size="10.5" font-weight="bold" text-anchor="middle" fill="#fff">GP4/5</text>
<text x="108" y="1393" font-size="11.5" fill="#1f2937">I2C0  -  MPU6500 IMU + BMP388 baro</text>
<text x="648" y="1393" font-size="11" text-anchor="end" fill="#2563eb"></text>
<rect x="61" y="1402" width="598" height="25" fill="#f1f5f9"/>
<rect x="68" y="1406" width="30" height="17" rx="4" fill="#334155"/>
<text x="83" y="1418" font-size="10.5" font-weight="bold" text-anchor="middle" fill="#fff">GP16-19</text>
<text x="108" y="1418" font-size="11.5" fill="#1f2937">SPI0  -  microSD card</text>
<text x="648" y="1418" font-size="11" text-anchor="end" fill="#0d9488"></text>
<rect x="68" y="1431" width="30" height="17" rx="4" fill="#334155"/>
<text x="83" y="1443" font-size="10.5" font-weight="bold" text-anchor="middle" fill="#fff">GP1</text>
<text x="108" y="1443" font-size="11.5" fill="#1f2937">SBUS receiver  (PIO)</text>
<text x="648" y="1443" font-size="11" text-anchor="end" fill="#4f46e5"></text>
<rect x="61" y="1452" width="598" height="25" fill="#f1f5f9"/>
<rect x="68" y="1456" width="30" height="17" rx="4" fill="#334155"/>
<text x="83" y="1468" font-size="10.5" font-weight="bold" text-anchor="middle" fill="#fff">GP20/21</text>
<text x="108" y="1468" font-size="11.5" fill="#1f2937">companion UART  -  ESP32-C3</text>
<text x="648" y="1468" font-size="11" text-anchor="end" fill="#7c3aed"></text>
<rect x="68" y="1481" width="30" height="17" rx="4" fill="#334155"/>
<text x="83" y="1493" font-size="10.5" font-weight="bold" text-anchor="middle" fill="#fff">GP14</text>
<text x="108" y="1493" font-size="11.5" fill="#1f2937">status LED</text>
<text x="648" y="1493" font-size="11" text-anchor="end" fill="#ca8a04"></text>
<text x="60" y="1534" font-size="11" fill="#475569">Ground: no MPX pin. All grounds are one common node, joined by a thin tap at each XT60. That common ground also returns the</text>
<text x="60" y="1552" font-size="11" fill="#475569">fuselage power, so keep it solid. Blue label = core flight mixer. Indigo = aux, driven by user-sketch.ino. Red = power.</text>
<text x="60" y="1570" font-size="11" fill="#475569">LED1 (white, always on) taps each wing's local 5 V / GND, no GPIO. LED2 (red left, green right) blinks from one shared GPIO.</text>
</svg>
